{
	"asset":{
		"generator":"Khronos glTF Blender I/O v4.3.47",
		"version":"2.0"
	},
	"extensionsUsed":[
		"KHR_materials_specular"
	],
	"scene":0,
	"scenes":[
		{
			"name":"Scene",
			"nodes":[
				3,
				7,
				11,
				15,
				19,
				23,
				28
			]
		}
	],
	"nodes":[
		{
			"name":"coral18"
		},
		{
			"children":[
				0
			],
			"name":"RootNode"
		},
		{
			"children":[
				1
			],
			"name":"33358f244abc4bf980fca52dfb3a763b.fbx",
			"rotation":[
				0.70710688829422,
				0,
				0,
				0.7071066498756409
			],
			"scale":[
				0.009999999776482582,
				0.010000000707805157,
				0.010000000707805157
			]
		},
		{
			"children":[
				2
			],
			"name":"Sketchfab_model",
			"rotation":[
				-0.70710688829422,
				0,
				0,
				0.7071066498756409
			]
		},
		{
			"name":"coral16"
		},
		{
			"children":[
				4
			],
			"name":"RootNode.001"
		},
		{
			"children":[
				5
			],
			"name":"33358f244abc4bf980fca52dfb3a763b.fbx.001",
			"rotation":[
				0.70710688829422,
				0,
				0,
				0.7071066498756409
			],
			"scale":[
				0.009999999776482582,
				0.010000000707805157,
				0.010000000707805157
			]
		},
		{
			"children":[
				6
			],
			"name":"Sketchfab_model.001",
			"rotation":[
				-0.70710688829422,
				0,
				0,
				0.7071066498756409
			]
		},
		{
			"name":"coral15"
		},
		{
			"children":[
				8
			],
			"name":"RootNode.002"
		},
		{
			"children":[
				9
			],
			"name":"33358f244abc4bf980fca52dfb3a763b.fbx.002",
			"rotation":[
				0.70710688829422,
				0,
				0,
				0.7071066498756409
			],
			"scale":[
				0.009999999776482582,
				0.010000000707805157,
				0.010000000707805157
			]
		},
		{
			"children":[
				10
			],
			"name":"Sketchfab_model.002",
			"rotation":[
				-0.70710688829422,
				0,
				0,
				0.7071066498756409
			]
		},
		{
			"name":"coral23"
		},
		{
			"children":[
				12
			],
			"name":"RootNode.003"
		},
		{
			"children":[
				13
			],
			"name":"33358f244abc4bf980fca52dfb3a763b.fbx.003",
			"rotation":[
				0.70710688829422,
				0,
				0,
				0.7071066498756409
			],
			"scale":[
				0.009999999776482582,
				0.010000000707805157,
				0.010000000707805157
			]
		},
		{
			"children":[
				14
			],
			"name":"Sketchfab_model.003",
			"rotation":[
				-0.70710688829422,
				0,
				0,
				0.7071066498756409
			]
		},
		{
			"name":"coral13"
		},
		{
			"children":[
				16
			],
			"name":"RootNode.004"
		},
		{
			"children":[
				17
			],
			"name":"33358f244abc4bf980fca52dfb3a763b.fbx.004",
			"rotation":[
				0.70710688829422,
				0,
				0,
				0.7071066498756409
			],
			"scale":[
				0.009999999776482582,
				0.010000000707805157,
				0.010000000707805157
			]
		},
		{
			"children":[
				18
			],
			"name":"Sketchfab_model.004",
			"rotation":[
				-0.70710688829422,
				0,
				0,
				0.7071066498756409
			]
		},
		{
			"name":"coral01"
		},
		{
			"children":[
				20
			],
			"name":"RootNode.005"
		},
		{
			"children":[
				21
			],
			"name":"33358f244abc4bf980fca52dfb3a763b.fbx.005",
			"rotation":[
				0.70710688829422,
				0,
				0,
				0.7071066498756409
			],
			"scale":[
				0.009999999776482582,
				0.010000000707805157,
				0.010000000707805157
			]
		},
		{
			"children":[
				22
			],
			"name":"Sketchfab_model.005",
			"rotation":[
				-0.70710688829422,
				0,
				0,
				0.7071066498756409
			]
		},
		{
			"mesh":0,
			"name":"coral19_M_coral_01_0",
			"translation":[
				4.6442952156066895,
				0,
				-4.407641887664795
			]
		},
		{
			"children":[
				24
			],
			"name":"coral19"
		},
		{
			"children":[
				25
			],
			"name":"RootNode.006"
		},
		{
			"children":[
				26
			],
			"name":"33358f244abc4bf980fca52dfb3a763b.fbx.006",
			"rotation":[
				0.70710688829422,
				0,
				0,
				0.7071066498756409
			],
			"scale":[
				0.009999999776482582,
				0.010000000707805157,
				0.010000000707805157
			]
		},
		{
			"children":[
				27
			],
			"name":"Sketchfab_model.006",
			"rotation":[
				-0.70710688829422,
				0,
				0,
				0.7071066498756409
			]
		}
	],
	"materials":[
		{
			"doubleSided":true,
			"extensions":{
				"KHR_materials_specular":{
					"specularFactor":0
				}
			},
			"name":"M_coral_01.001",
			"normalTexture":{
				"index":0
			},
			"pbrMetallicRoughness":{
				"baseColorTexture":{
					"index":1
				},
				"metallicFactor":0
			}
		}
	],
	"meshes":[
		{
			"name":"coral19_M_coral_01_0",
			"primitives":[
				{
					"attributes":{
						"POSITION":0,
						"NORMAL":1,
						"TEXCOORD_0":2
					},
					"indices":3,
					"material":0
				}
			]
		}
	],
	"textures":[
		{
			"sampler":0,
			"source":0
		},
		{
			"sampler":0,
			"source":1
		}
	],
	"images":[
		{
			"mimeType":"image/png",
			"name":"M_coral_normal",
			"uri":"M_coral_normal.png"
		},
		{
			"mimeType":"image/png",
			"name":"M_coral_01_baseColor",
			"uri":"M_coral_01_baseColor.png"
		}
	],
	"accessors":[
		{
			"bufferView":0,
			"componentType":5126,
			"count":1228,
			"max":[
				-3.150308847427368,
				3.512845039367676,
				6.416324615478516
			],
			"min":[
				-6.502223968505859,
				-0.1855558454990387,
				3.1804845333099365
			],
			"type":"VEC3"
		},
		{
			"bufferView":1,
			"componentType":5126,
			"count":1228,
			"type":"VEC3"
		},
		{
			"bufferView":2,
			"componentType":5126,
			"count":1228,
			"type":"VEC2"
		},
		{
			"bufferView":3,
			"componentType":5123,
			"count":5436,
			"type":"SCALAR"
		}
	],
	"bufferViews":[
		{
			"buffer":0,
			"byteLength":14736,
			"byteOffset":0,
			"target":34962
		},
		{
			"buffer":0,
			"byteLength":14736,
			"byteOffset":14736,
			"target":34962
		},
		{
			"buffer":0,
			"byteLength":9824,
			"byteOffset":29472,
			"target":34962
		},
		{
			"buffer":0,
			"byteLength":10872,
			"byteOffset":39296,
			"target":34963
		}
	],
	"samplers":[
		{
			"magFilter":9729,
			"minFilter":9987
		}
	],
	"buffers":[
		{
			"byteLength":50168,
			"uri":"coral-rojo-conos-paque%C3%B1os.bin"
		}
	]
}
