{
	"asset":{
		"generator":"Khronos glTF Blender I/O v4.3.47",
		"version":"2.0"
	},
	"scene":0,
	"scenes":[
		{
			"name":"Scene",
			"nodes":[
				2
			]
		}
	],
	"nodes":[
		{
			"mesh":0,
			"name":"Object_2",
			"translation":[
				1.6852679252624512,
				-5.898436069488525,
				-11.726655006408691
			]
		},
		{
			"children":[
				0
			],
			"name":"33ce45313b5f423387f744e673d12502.obj.cleaner.materialmerger.gle"
		},
		{
			"children":[
				1
			],
			"name":"Sketchfab_model",
			"rotation":[
				-0.70710688829422,
				0,
				0,
				0.7071066498756409
			]
		}
	],
	"materials":[
		{
			"doubleSided":true,
			"name":"Material.001",
			"pbrMetallicRoughness":{
				"baseColorTexture":{
					"index":0
				},
				"metallicFactor":0,
				"roughnessFactor":0.6000000238418579
			}
		}
	],
	"meshes":[
		{
			"name":"Object_0",
			"primitives":[
				{
					"attributes":{
						"POSITION":0,
						"NORMAL":1,
						"TEXCOORD_0":2
					},
					"indices":3,
					"material":0
				}
			]
		}
	],
	"textures":[
		{
			"sampler":0,
			"source":0
		}
	],
	"images":[
		{
			"mimeType":"image/jpeg",
			"name":"Material.001_baseColor",
			"uri":"Material_001_baseColor.jpg"
		}
	],
	"accessors":[
		{
			"bufferView":0,
			"componentType":5126,
			"count":1678,
			"max":[
				1.1184630393981934,
				8.193988800048828,
				18.859935760498047
			],
			"min":[
				-3.7205650806427,
				3.285655975341797,
				11.595579147338867
			],
			"type":"VEC3"
		},
		{
			"bufferView":1,
			"componentType":5126,
			"count":1678,
			"type":"VEC3"
		},
		{
			"bufferView":2,
			"componentType":5126,
			"count":1678,
			"type":"VEC2"
		},
		{
			"bufferView":3,
			"componentType":5123,
			"count":2430,
			"type":"SCALAR"
		}
	],
	"bufferViews":[
		{
			"buffer":0,
			"byteLength":20136,
			"byteOffset":0,
			"target":34962
		},
		{
			"buffer":0,
			"byteLength":20136,
			"byteOffset":20136,
			"target":34962
		},
		{
			"buffer":0,
			"byteLength":13424,
			"byteOffset":40272,
			"target":34962
		},
		{
			"buffer":0,
			"byteLength":4860,
			"byteOffset":53696,
			"target":34963
		}
	],
	"samplers":[
		{
			"magFilter":9729,
			"minFilter":9987
		}
	],
	"buffers":[
		{
			"byteLength":58556,
			"uri":"alga.bin"
		}
	]
}
