{
	"asset":{
		"generator":"Khronos glTF Blender I/O v4.3.47",
		"version":"2.0"
	},
	"extensionsUsed":[
		"KHR_materials_specular"
	],
	"scene":0,
	"scenes":[
		{
			"name":"Scene",
			"nodes":[
				3,
				7,
				11,
				15,
				19,
				23,
				27,
				32
			]
		}
	],
	"nodes":[
		{
			"name":"coral18"
		},
		{
			"children":[
				0
			],
			"name":"RootNode"
		},
		{
			"children":[
				1
			],
			"name":"33358f244abc4bf980fca52dfb3a763b.fbx",
			"rotation":[
				0.70710688829422,
				0,
				0,
				0.7071066498756409
			],
			"scale":[
				0.009999999776482582,
				0.010000000707805157,
				0.010000000707805157
			]
		},
		{
			"children":[
				2
			],
			"name":"Sketchfab_model",
			"rotation":[
				-0.70710688829422,
				0,
				0,
				0.7071066498756409
			]
		},
		{
			"name":"coral16"
		},
		{
			"children":[
				4
			],
			"name":"RootNode.001"
		},
		{
			"children":[
				5
			],
			"name":"33358f244abc4bf980fca52dfb3a763b.fbx.001",
			"rotation":[
				0.70710688829422,
				0,
				0,
				0.7071066498756409
			],
			"scale":[
				0.009999999776482582,
				0.010000000707805157,
				0.010000000707805157
			]
		},
		{
			"children":[
				6
			],
			"name":"Sketchfab_model.001",
			"rotation":[
				-0.70710688829422,
				0,
				0,
				0.7071066498756409
			]
		},
		{
			"name":"coral15"
		},
		{
			"children":[
				8
			],
			"name":"RootNode.002"
		},
		{
			"children":[
				9
			],
			"name":"33358f244abc4bf980fca52dfb3a763b.fbx.002",
			"rotation":[
				0.70710688829422,
				0,
				0,
				0.7071066498756409
			],
			"scale":[
				0.009999999776482582,
				0.010000000707805157,
				0.010000000707805157
			]
		},
		{
			"children":[
				10
			],
			"name":"Sketchfab_model.002",
			"rotation":[
				-0.70710688829422,
				0,
				0,
				0.7071066498756409
			]
		},
		{
			"name":"coral23"
		},
		{
			"children":[
				12
			],
			"name":"RootNode.003"
		},
		{
			"children":[
				13
			],
			"name":"33358f244abc4bf980fca52dfb3a763b.fbx.003",
			"rotation":[
				0.70710688829422,
				0,
				0,
				0.7071066498756409
			],
			"scale":[
				0.009999999776482582,
				0.010000000707805157,
				0.010000000707805157
			]
		},
		{
			"children":[
				14
			],
			"name":"Sketchfab_model.003",
			"rotation":[
				-0.70710688829422,
				0,
				0,
				0.7071066498756409
			]
		},
		{
			"name":"coral13"
		},
		{
			"children":[
				16
			],
			"name":"RootNode.004"
		},
		{
			"children":[
				17
			],
			"name":"33358f244abc4bf980fca52dfb3a763b.fbx.004",
			"rotation":[
				0.70710688829422,
				0,
				0,
				0.7071066498756409
			],
			"scale":[
				0.009999999776482582,
				0.010000000707805157,
				0.010000000707805157
			]
		},
		{
			"children":[
				18
			],
			"name":"Sketchfab_model.004",
			"rotation":[
				-0.70710688829422,
				0,
				0,
				0.7071066498756409
			]
		},
		{
			"name":"coral01"
		},
		{
			"children":[
				20
			],
			"name":"RootNode.005"
		},
		{
			"children":[
				21
			],
			"name":"33358f244abc4bf980fca52dfb3a763b.fbx.005",
			"rotation":[
				0.70710688829422,
				0,
				0,
				0.7071066498756409
			],
			"scale":[
				0.009999999776482582,
				0.010000000707805157,
				0.010000000707805157
			]
		},
		{
			"children":[
				22
			],
			"name":"Sketchfab_model.005",
			"rotation":[
				-0.70710688829422,
				0,
				0,
				0.7071066498756409
			]
		},
		{
			"name":"coral19"
		},
		{
			"children":[
				24
			],
			"name":"RootNode.006"
		},
		{
			"children":[
				25
			],
			"name":"33358f244abc4bf980fca52dfb3a763b.fbx.006",
			"rotation":[
				0.70710688829422,
				0,
				0,
				0.7071066498756409
			],
			"scale":[
				0.009999999776482582,
				0.010000000707805157,
				0.010000000707805157
			]
		},
		{
			"children":[
				26
			],
			"name":"Sketchfab_model.006",
			"rotation":[
				-0.70710688829422,
				0,
				0,
				0.7071066498756409
			]
		},
		{
			"mesh":0,
			"name":"coral11_M_coral_0",
			"translation":[
				-4.673876762390137,
				0,
				-0.8282815217971802
			]
		},
		{
			"children":[
				28
			],
			"name":"coral11"
		},
		{
			"children":[
				29
			],
			"name":"RootNode.007"
		},
		{
			"children":[
				30
			],
			"name":"33358f244abc4bf980fca52dfb3a763b.fbx.007",
			"rotation":[
				0.70710688829422,
				0,
				0,
				0.7071066498756409
			],
			"scale":[
				0.009999999776482582,
				0.010000000707805157,
				0.010000000707805157
			]
		},
		{
			"children":[
				31
			],
			"name":"Sketchfab_model.007",
			"rotation":[
				-0.70710688829422,
				0,
				0,
				0.7071066498756409
			]
		}
	],
	"materials":[
		{
			"doubleSided":true,
			"extensions":{
				"KHR_materials_specular":{
					"specularFactor":0
				}
			},
			"name":"M_coral.005",
			"normalTexture":{
				"index":0
			},
			"pbrMetallicRoughness":{
				"baseColorTexture":{
					"index":1
				},
				"metallicFactor":0
			}
		}
	],
	"meshes":[
		{
			"name":"coral11_M_coral_0",
			"primitives":[
				{
					"attributes":{
						"POSITION":0,
						"NORMAL":1,
						"TEXCOORD_0":2
					},
					"indices":3,
					"material":0
				}
			]
		}
	],
	"textures":[
		{
			"sampler":0,
			"source":0
		},
		{
			"sampler":0,
			"source":1
		}
	],
	"images":[
		{
			"mimeType":"image/png",
			"name":"M_coral_normal",
			"uri":"M_coral_normal.png"
		},
		{
			"mimeType":"image/png",
			"name":"M_coral_baseColor",
			"uri":"M_coral_baseColor.png"
		}
	],
	"accessors":[
		{
			"bufferView":0,
			"componentType":5126,
			"count":1417,
			"max":[
				6.690176010131836,
				4.544969081878662,
				2.710294485092163
			],
			"min":[
				2.873734474182129,
				-0.06458669900894165,
				-0.9956938624382019
			],
			"type":"VEC3"
		},
		{
			"bufferView":1,
			"componentType":5126,
			"count":1417,
			"type":"VEC3"
		},
		{
			"bufferView":2,
			"componentType":5126,
			"count":1417,
			"type":"VEC2"
		},
		{
			"bufferView":3,
			"componentType":5123,
			"count":6723,
			"type":"SCALAR"
		}
	],
	"bufferViews":[
		{
			"buffer":0,
			"byteLength":17004,
			"byteOffset":0,
			"target":34962
		},
		{
			"buffer":0,
			"byteLength":17004,
			"byteOffset":17004,
			"target":34962
		},
		{
			"buffer":0,
			"byteLength":11336,
			"byteOffset":34008,
			"target":34962
		},
		{
			"buffer":0,
			"byteLength":13446,
			"byteOffset":45344,
			"target":34963
		}
	],
	"samplers":[
		{
			"magFilter":9729,
			"minFilter":9987
		}
	],
	"buffers":[
		{
			"byteLength":58792,
			"uri":"coral-amarillo-conos-grante.bin"
		}
	]
}
