{
	"asset":{
		"generator":"Khronos glTF Blender I/O v4.3.47",
		"version":"2.0"
	},
	"scene":0,
	"scenes":[
		{
			"name":"Scene",
			"nodes":[
				5
			]
		}
	],
	"nodes":[
		{
			"mesh":0,
			"name":"Jelly Fish Net_02 - Default_0",
			"scale":[
				0.9870784282684326,
				0.9610458612442017,
				1.3804935216903687
			],
			"translation":[
				0,
				-9.871087968349457e-06,
				-2.0936131477355957e-06
			]
		},
		{
			"mesh":1,
			"name":"Jelly Fish Net_03 - Default_0",
			"translation":[
				0,
				-9.871087968349457e-06,
				-2.0936131477355957e-06
			]
		},
		{
			"children":[
				0,
				1
			],
			"name":"Jelly Fish Net",
			"rotation":[
				-0.08715564012527466,
				0,
				0,
				0.9961947202682495
			],
			"scale":[
				1,
				1.0654215812683105,
				1
			],
			"translation":[
				0,
				192.31460571289062,
				-28.713407516479492
			]
		},
		{
			"children":[
				2
			],
			"name":"RootNode"
		},
		{
			"children":[
				3
			],
			"name":"d0392e5e158042298d8791ff135794d8.fbx",
			"rotation":[
				0.70710688829422,
				0,
				0,
				0.7071066498756409
			],
			"translation":[
				0,
				0,
				-7.641758202225901e-06
			]
		},
		{
			"children":[
				4
			],
			"name":"Sketchfab_model",
			"rotation":[
				-0.49578797817230225,
				-0.5041768550872803,
				-0.5041768550872803,
				0.49578797817230225
			],
			"scale":[
				0.034008968621492386,
				0.03150547668337822,
				0.019091205671429634
			],
			"translation":[
				0,
				-1.5217056274414062,
				-0.1405315399169922
			]
		}
	],
	"materials":[
		{
			"doubleSided":true,
			"name":"02_-_Default",
			"pbrMetallicRoughness":{
				"baseColorFactor":[
					0.49411800503730774,
					0.32548999786376953,
					0,
					1
				],
				"metallicFactor":0.5,
				"roughnessFactor":0.5531631112098694
			}
		},
		{
			"doubleSided":true,
			"name":"03_-_Default",
			"pbrMetallicRoughness":{
				"metallicFactor":0.6419588327407837,
				"roughnessFactor":0.5897485017776489
			}
		}
	],
	"meshes":[
		{
			"name":"Jelly Fish Net_02 - Default_0",
			"primitives":[
				{
					"attributes":{
						"POSITION":0,
						"NORMAL":1,
						"TEXCOORD_0":2
					},
					"indices":3,
					"material":0
				}
			]
		},
		{
			"name":"Jelly Fish Net_03 - Default_0",
			"primitives":[
				{
					"attributes":{
						"POSITION":4,
						"NORMAL":5,
						"TEXCOORD_0":6
					},
					"indices":7,
					"material":1
				}
			]
		}
	],
	"accessors":[
		{
			"bufferView":0,
			"componentType":5126,
			"count":1158,
			"max":[
				92.79906463623047,
				143.332275390625,
				15.052637100219727
			],
			"min":[
				-92.79906463623047,
				-474.47125244140625,
				-15.052637100219727
			],
			"type":"VEC3"
		},
		{
			"bufferView":1,
			"componentType":5126,
			"count":1158,
			"type":"VEC3"
		},
		{
			"bufferView":2,
			"componentType":5126,
			"count":1158,
			"type":"VEC2"
		},
		{
			"bufferView":3,
			"componentType":5123,
			"count":5460,
			"type":"SCALAR"
		},
		{
			"bufferView":4,
			"componentType":5126,
			"count":2059,
			"max":[
				84.9053726196289,
				133.4653778076172,
				-9.663651466369629
			],
			"min":[
				-84.90538024902344,
				-118.88298034667969,
				-299.98883056640625
			],
			"type":"VEC3"
		},
		{
			"bufferView":5,
			"componentType":5126,
			"count":2059,
			"type":"VEC3"
		},
		{
			"bufferView":6,
			"componentType":5126,
			"count":2059,
			"type":"VEC2"
		},
		{
			"bufferView":7,
			"componentType":5123,
			"count":9369,
			"type":"SCALAR"
		}
	],
	"bufferViews":[
		{
			"buffer":0,
			"byteLength":13896,
			"byteOffset":0,
			"target":34962
		},
		{
			"buffer":0,
			"byteLength":13896,
			"byteOffset":13896,
			"target":34962
		},
		{
			"buffer":0,
			"byteLength":9264,
			"byteOffset":27792,
			"target":34962
		},
		{
			"buffer":0,
			"byteLength":10920,
			"byteOffset":37056,
			"target":34963
		},
		{
			"buffer":0,
			"byteLength":24708,
			"byteOffset":47976,
			"target":34962
		},
		{
			"buffer":0,
			"byteLength":24708,
			"byteOffset":72684,
			"target":34962
		},
		{
			"buffer":0,
			"byteLength":16472,
			"byteOffset":97392,
			"target":34962
		},
		{
			"buffer":0,
			"byteLength":18738,
			"byteOffset":113864,
			"target":34963
		}
	],
	"buffers":[
		{
			"byteLength":132604,
			"uri":"untitled.bin"
		}
	]
}
