{
	"asset":{
		"generator":"Khronos glTF Blender I/O v4.3.47",
		"version":"2.0"
	},
	"extensionsUsed":[
		"KHR_materials_specular"
	],
	"scene":0,
	"scenes":[
		{
			"name":"Scene",
			"nodes":[
				3,
				8
			]
		}
	],
	"nodes":[
		{
			"name":"coral18"
		},
		{
			"children":[
				0
			],
			"name":"RootNode"
		},
		{
			"children":[
				1
			],
			"name":"33358f244abc4bf980fca52dfb3a763b.fbx",
			"rotation":[
				0.70710688829422,
				0,
				0,
				0.7071066498756409
			],
			"scale":[
				0.009999999776482582,
				0.010000000707805157,
				0.010000000707805157
			]
		},
		{
			"children":[
				2
			],
			"name":"Sketchfab_model",
			"rotation":[
				-0.70710688829422,
				0,
				0,
				0.7071066498756409
			]
		},
		{
			"mesh":0,
			"name":"coral16_M_coral_0",
			"translation":[
				-8.99770450592041,
				0,
				4.264664649963379
			]
		},
		{
			"children":[
				4
			],
			"name":"coral16"
		},
		{
			"children":[
				5
			],
			"name":"RootNode.001"
		},
		{
			"children":[
				6
			],
			"name":"33358f244abc4bf980fca52dfb3a763b.fbx.001",
			"rotation":[
				0.70710688829422,
				0,
				0,
				0.7071066498756409
			],
			"scale":[
				0.009999999776482582,
				0.010000000707805157,
				0.010000000707805157
			]
		},
		{
			"children":[
				7
			],
			"name":"Sketchfab_model.001",
			"rotation":[
				-0.70710688829422,
				0,
				0,
				0.7071066498756409
			]
		}
	],
	"materials":[
		{
			"doubleSided":true,
			"extensions":{
				"KHR_materials_specular":{
					"specularFactor":0
				}
			},
			"name":"M_coral.001",
			"normalTexture":{
				"index":0
			},
			"pbrMetallicRoughness":{
				"baseColorTexture":{
					"index":1
				},
				"metallicFactor":0
			}
		}
	],
	"meshes":[
		{
			"name":"coral16_M_coral_0",
			"primitives":[
				{
					"attributes":{
						"POSITION":0,
						"NORMAL":1,
						"TEXCOORD_0":2
					},
					"indices":3,
					"material":0
				}
			]
		}
	],
	"textures":[
		{
			"sampler":0,
			"source":0
		},
		{
			"sampler":0,
			"source":1
		}
	],
	"images":[
		{
			"mimeType":"image/png",
			"name":"M_coral_normal",
			"uri":"M_coral_normal.png"
		},
		{
			"mimeType":"image/png",
			"name":"M_coral_baseColor",
			"uri":"M_coral_baseColor.png"
		}
	],
	"accessors":[
		{
			"bufferView":0,
			"componentType":5126,
			"count":444,
			"max":[
				10.927576065063477,
				1.72678804397583,
				-2.547030448913574
			],
			"min":[
				7.294217109680176,
				-0.06725996732711792,
				-6.1614789962768555
			],
			"type":"VEC3"
		},
		{
			"bufferView":1,
			"componentType":5126,
			"count":444,
			"type":"VEC3"
		},
		{
			"bufferView":2,
			"componentType":5126,
			"count":444,
			"type":"VEC2"
		},
		{
			"bufferView":3,
			"componentType":5123,
			"count":2268,
			"type":"SCALAR"
		}
	],
	"bufferViews":[
		{
			"buffer":0,
			"byteLength":5328,
			"byteOffset":0,
			"target":34962
		},
		{
			"buffer":0,
			"byteLength":5328,
			"byteOffset":5328,
			"target":34962
		},
		{
			"buffer":0,
			"byteLength":3552,
			"byteOffset":10656,
			"target":34962
		},
		{
			"buffer":0,
			"byteLength":4536,
			"byteOffset":14208,
			"target":34963
		}
	],
	"samplers":[
		{
			"magFilter":9729,
			"minFilter":9987
		}
	],
	"buffers":[
		{
			"byteLength":18744,
			"uri":"coral-rojo.bin"
		}
	]
}
