{
	"asset":{
		"generator":"Khronos glTF Blender I/O v4.3.47",
		"version":"2.0"
	},
	"extensionsUsed":[
		"KHR_materials_specular"
	],
	"scene":0,
	"scenes":[
		{
			"name":"Scene",
			"nodes":[
				3,
				7,
				11,
				16
			]
		}
	],
	"nodes":[
		{
			"name":"coral18"
		},
		{
			"children":[
				0
			],
			"name":"RootNode"
		},
		{
			"children":[
				1
			],
			"name":"33358f244abc4bf980fca52dfb3a763b.fbx",
			"rotation":[
				0.70710688829422,
				0,
				0,
				0.7071066498756409
			],
			"scale":[
				0.009999999776482582,
				0.010000000707805157,
				0.010000000707805157
			]
		},
		{
			"children":[
				2
			],
			"name":"Sketchfab_model",
			"rotation":[
				-0.70710688829422,
				0,
				0,
				0.7071066498756409
			]
		},
		{
			"name":"coral16"
		},
		{
			"children":[
				4
			],
			"name":"RootNode.001"
		},
		{
			"children":[
				5
			],
			"name":"33358f244abc4bf980fca52dfb3a763b.fbx.001",
			"rotation":[
				0.70710688829422,
				0,
				0,
				0.7071066498756409
			],
			"scale":[
				0.009999999776482582,
				0.010000000707805157,
				0.010000000707805157
			]
		},
		{
			"children":[
				6
			],
			"name":"Sketchfab_model.001",
			"rotation":[
				-0.70710688829422,
				0,
				0,
				0.7071066498756409
			]
		},
		{
			"name":"coral15"
		},
		{
			"children":[
				8
			],
			"name":"RootNode.002"
		},
		{
			"children":[
				9
			],
			"name":"33358f244abc4bf980fca52dfb3a763b.fbx.002",
			"rotation":[
				0.70710688829422,
				0,
				0,
				0.7071066498756409
			],
			"scale":[
				0.009999999776482582,
				0.010000000707805157,
				0.010000000707805157
			]
		},
		{
			"children":[
				10
			],
			"name":"Sketchfab_model.002",
			"rotation":[
				-0.70710688829422,
				0,
				0,
				0.7071066498756409
			]
		},
		{
			"mesh":0,
			"name":"coral23_M_coral_01_0",
			"translation":[
				0.5620485544204712,
				0,
				-4.200570583343506
			]
		},
		{
			"children":[
				12
			],
			"name":"coral23"
		},
		{
			"children":[
				13
			],
			"name":"RootNode.003"
		},
		{
			"children":[
				14
			],
			"name":"33358f244abc4bf980fca52dfb3a763b.fbx.003",
			"rotation":[
				0.70710688829422,
				0,
				0,
				0.7071066498756409
			],
			"scale":[
				0.009999999776482582,
				0.010000000707805157,
				0.010000000707805157
			]
		},
		{
			"children":[
				15
			],
			"name":"Sketchfab_model.003",
			"rotation":[
				-0.70710688829422,
				0,
				0,
				0.7071066498756409
			]
		}
	],
	"materials":[
		{
			"doubleSided":true,
			"extensions":{
				"KHR_materials_specular":{
					"specularFactor":0
				}
			},
			"name":"M_coral_01",
			"normalTexture":{
				"index":0
			},
			"pbrMetallicRoughness":{
				"baseColorTexture":{
					"index":1
				},
				"metallicFactor":0
			}
		}
	],
	"meshes":[
		{
			"name":"coral23_M_coral_01_0",
			"primitives":[
				{
					"attributes":{
						"POSITION":0,
						"NORMAL":1,
						"TEXCOORD_0":2
					},
					"indices":3,
					"material":0
				}
			]
		}
	],
	"textures":[
		{
			"sampler":0,
			"source":0
		},
		{
			"sampler":0,
			"source":1
		}
	],
	"images":[
		{
			"mimeType":"image/png",
			"name":"M_coral_normal",
			"uri":"M_coral_normal.png"
		},
		{
			"mimeType":"image/png",
			"name":"M_coral_01_baseColor",
			"uri":"M_coral_01_baseColor.png"
		}
	],
	"accessors":[
		{
			"bufferView":0,
			"componentType":5126,
			"count":2454,
			"max":[
				1.671679973602295,
				2.7174768447875977,
				5.845044136047363
			],
			"min":[
				-2.508289098739624,
				-0.09780678898096085,
				1.7422819137573242
			],
			"type":"VEC3"
		},
		{
			"bufferView":1,
			"componentType":5126,
			"count":2454,
			"type":"VEC3"
		},
		{
			"bufferView":2,
			"componentType":5126,
			"count":2454,
			"type":"VEC2"
		},
		{
			"bufferView":3,
			"componentType":5123,
			"count":9000,
			"type":"SCALAR"
		}
	],
	"bufferViews":[
		{
			"buffer":0,
			"byteLength":29448,
			"byteOffset":0,
			"target":34962
		},
		{
			"buffer":0,
			"byteLength":29448,
			"byteOffset":29448,
			"target":34962
		},
		{
			"buffer":0,
			"byteLength":19632,
			"byteOffset":58896,
			"target":34962
		},
		{
			"buffer":0,
			"byteLength":18000,
			"byteOffset":78528,
			"target":34963
		}
	],
	"samplers":[
		{
			"magFilter":9729,
			"minFilter":9987
		}
	],
	"buffers":[
		{
			"byteLength":96528,
			"uri":"coral-lila.bin"
		}
	]
}
